<?xml version='1.0' encoding='iso-8859-1'?>
<!-- Uploaded to: SVG Repo, www.svgrepo.com, Generator: SVG Repo Mixer Tools -->
<svg fill="#000000" height="800px" width="800px" version="1.1" xmlns="http://www.w3.org/2000/svg" viewBox="0 0 490 490" xmlns:xlink="http://www.w3.org/1999/xlink" enable-background="new 0 0 490 490">
  <g>
    <path d="m490,278.3h-0.4-28.1v-220.8h-433.4v220.8h-28.1v80.2h37.7c-5.4,7.6-8.5,17-8.5,27.1 0,26 20.8,46.9 46.9,46.9 14.8,0 27.9-6.7 36.5-17.3 8.6,10.6 21.7,17.3 36.5,17.3 26,0 46.9-20.8 46.9-46.9 0-10.1-3.2-19.5-8.5-27.1h115c-5.4,7.6-8.5,17-8.5,27.1 0,26 20.8,46.9 46.9,46.9 14.8,0 27.9-6.7 36.5-17.3 8.6,10.6 21.7,17.3 36.5,17.3 26,0 46.9-20.8 46.9-46.9 0-10.1-3.2-19.5-8.5-27.1h37.7v-80.2zm-87.9-200h38.5v200h-38.5v-200zm-59.4-0h38.5v200h-38.5v-200zm-58.3-0h37.5v200h-37.5v-200zm-59.4-0h38.5v200h-38.5v-200zm-58.3-0h37.5v200h-37.5v-200zm-59.4-0h38.5v200h-38.5v-200zm-58.3-0h37.5v200h-37.5v-200zm27,333.4c-14.6,0-26-12.5-26-27.1s11.5-26 26-26c14.6,0 26,12.5 26,27.1 0.1,14.5-11.4,26-26,26zm73-1.1c-14.6,0-26-11.5-26-26s11.5-26 26-26c14.5-0.1 26,11.4 26,26 0,14.6-11.5,26-26,26zm191.6,0c-14.6,0-26-11.5-26-26s11.5-26 26-26c14.6,0 26,11.5 26,26s-11.4,26-26,26zm73,0c-14.6,0-26-11.5-26-26s11.5-26 26-26c14.5-0.1 26,11.4 26,26 0,14.6-11.5,26-26,26zm55.2-72.9h-448v-38.5h448v38.5z"/>
  </g>
</svg>